# xmcd CD database file
#
# Track frame offsets:
#	150
#	18800
#	34375
#	53037
#
# Disc length: 909 seconds
#
# Revision: 0
# Processed by: cddbd v1.5PL3 Copyright (c) Steve Scherf et al.
# Submitted via: CDex 1.50beta9
#
DISCID=28038b04
DTITLE=森高千里 - 素敵な誕生日
DYEAR=1994
DGENRE=J-POP
TTITLE0=素敵な誕生日
TTITLE1=私の大事な人（シングル・バージョン）
TTITLE2=素敵な誕生日（オリジナル・カラオケ）
TTITLE3=私の大事な人（オリジナル・カラオケ）
EXTD=YEAR: 1994
EXTT0=
EXTT1=
EXTT2=
EXTT3=
PLAYORDER=
